<svg xmlns="http://www.w3.org/2000/svg" width="1100" height="710" viewBox="0 0 1100 710">
<rect width="100%" height="100%" fill="#1a1a2e" rx="8"/>
<style>
text { font-family: -apple-system, BlinkMacSystemFont, "Segoe UI", sans-serif; fill: #c9c9d4; font-size: 16px; }
.title { font-size: 30px; font-weight: 700; fill: #ffffff; }
.subtitle { font-size: 17px; fill: #c9c9d4; }
.lab { fill: #ffffff; font-weight: 600; }
.tick { font-size: 14.5px; fill: #8f8f9c; }
.val { font-weight: 600; font-size: 15px; fill: #ffffff; }
.axis { stroke: #55556a; stroke-width: 1.2; }
.grid { stroke: #3a3a4e; stroke-width: 1; }
</style>
<text class="title" x="60" y="42">Three readers fall apart on layout; six stay flat</text>
<text class="subtitle" x="60" y="68">Apple Vision and Unlimited-OCR degrade with column count; GLM-OCR collapses on dense mixed layouts.</text>
<text class="subtitle" x="60" y="92">Mean text edit distance by page layout, held-out 1,250. Lower is better.</text>
<line class="grid" x1="170" y1="338" x2="1070" y2="338"/>
<text class="tick" x="132" y="343">0.1</text>
<line class="grid" x1="170" y1="276" x2="1070" y2="276"/>
<text class="tick" x="132" y="281">0.2</text>
<line class="grid" x1="170" y1="214" x2="1070" y2="214"/>
<text class="tick" x="132" y="219">0.3</text>
<rect x="190.0" y="381.6" width="11.6" height="18.4" rx="4" fill="#3987e5"/>
<rect x="205.6" y="377.3" width="11.6" height="22.7" rx="4" fill="#e0b32a"/>
<rect x="221.1" y="373.7" width="11.6" height="26.3" rx="4" fill="#e0609a"/>
<rect x="236.7" y="345.3" width="11.6" height="54.7" rx="4" fill="#8fa3b8"/>
<rect x="252.2" y="329.2" width="11.6" height="70.8" rx="4" fill="#a06be0"/>
<rect x="267.8" y="324.2" width="11.6" height="75.8" rx="4" fill="#d95926"/>
<rect x="283.3" y="365.2" width="11.6" height="34.8" rx="4" fill="#199e70"/>
<rect x="298.9" y="374.0" width="11.6" height="26.0" rx="4" fill="#c98a3a"/>
<rect x="314.4" y="378.5" width="11.6" height="21.5" rx="4" fill="#33bfb8"/>
<text class="tick" x="260.0" y="426" text-anchor="middle">single column</text>
<rect x="370.0" y="380.2" width="11.6" height="19.8" rx="4" fill="#3987e5"/>
<rect x="385.6" y="377.9" width="11.6" height="22.1" rx="4" fill="#e0b32a"/>
<rect x="401.1" y="370.6" width="11.6" height="29.4" rx="4" fill="#e0609a"/>
<rect x="416.7" y="348.6" width="11.6" height="51.4" rx="4" fill="#8fa3b8"/>
<rect x="432.2" y="248.2" width="11.6" height="151.8" rx="4" fill="#a06be0"/>
<rect x="447.8" y="252.8" width="11.6" height="147.2" rx="4" fill="#d95926"/>
<rect x="463.3" y="378.0" width="11.6" height="22.0" rx="4" fill="#199e70"/>
<rect x="478.9" y="370.9" width="11.6" height="29.1" rx="4" fill="#c98a3a"/>
<rect x="494.4" y="384.9" width="11.6" height="15.1" rx="4" fill="#33bfb8"/>
<text class="tick" x="440.0" y="426" text-anchor="middle">double column</text>
<rect x="550.0" y="384.9" width="11.6" height="15.1" rx="4" fill="#3987e5"/>
<rect x="565.6" y="384.9" width="11.6" height="15.1" rx="4" fill="#e0b32a"/>
<rect x="581.1" y="372.0" width="11.6" height="28.0" rx="4" fill="#e0609a"/>
<rect x="596.7" y="338.2" width="11.6" height="61.8" rx="4" fill="#8fa3b8"/>
<rect x="612.2" y="165.2" width="11.6" height="234.8" rx="4" fill="#a06be0"/>
<rect x="627.8" y="171.3" width="11.6" height="228.7" rx="4" fill="#d95926"/>
<rect x="643.3" y="350.2" width="11.6" height="49.8" rx="4" fill="#199e70"/>
<rect x="658.9" y="384.9" width="11.6" height="15.1" rx="4" fill="#c98a3a"/>
<rect x="674.4" y="375.5" width="11.6" height="24.5" rx="4" fill="#33bfb8"/>
<text class="tick" x="620.0" y="426" text-anchor="middle">three column</text>
<rect x="730.0" y="384.2" width="11.6" height="15.8" rx="4" fill="#3987e5"/>
<rect x="745.6" y="382.1" width="11.6" height="17.9" rx="4" fill="#e0b32a"/>
<rect x="761.1" y="370.7" width="11.6" height="29.3" rx="4" fill="#e0609a"/>
<rect x="776.7" y="362.8" width="11.6" height="37.2" rx="4" fill="#8fa3b8"/>
<rect x="792.2" y="266.2" width="11.6" height="133.8" rx="4" fill="#a06be0"/>
<rect x="807.8" y="283.1" width="11.6" height="116.9" rx="4" fill="#d95926"/>
<rect x="823.3" y="364.4" width="11.6" height="35.6" rx="4" fill="#199e70"/>
<rect x="838.9" y="374.2" width="11.6" height="25.8" rx="4" fill="#c98a3a"/>
<rect x="854.4" y="389.0" width="11.6" height="11.0" rx="4" fill="#33bfb8"/>
<text class="tick" x="800.0" y="426" text-anchor="middle">mixed columns</text>
<rect x="910.0" y="365.4" width="11.6" height="34.6" rx="4" fill="#3987e5"/>
<rect x="925.6" y="365.0" width="11.6" height="35.0" rx="4" fill="#e0b32a"/>
<rect x="941.1" y="347.5" width="11.6" height="52.5" rx="4" fill="#e0609a"/>
<rect x="956.7" y="337.9" width="11.6" height="62.1" rx="4" fill="#8fa3b8"/>
<rect x="972.2" y="175.5" width="11.6" height="224.5" rx="4" fill="#a06be0"/>
<rect x="987.8" y="228.2" width="11.6" height="171.8" rx="4" fill="#d95926"/>
<rect x="1003.3" y="339.5" width="11.6" height="60.5" rx="4" fill="#199e70"/>
<rect x="1018.9" y="362.8" width="11.6" height="37.2" rx="4" fill="#c98a3a"/>
<rect x="1034.4" y="375.7" width="11.6" height="24.3" rx="4" fill="#33bfb8"/>
<text class="tick" x="980.0" y="426" text-anchor="middle">other layout</text>
<line class="axis" x1="170" y1="400" x2="1070" y2="400"/>
<line class="grid" x1="60" y1="442" x2="1070" y2="442"/>
<rect x="60" y="449" width="12" height="12" rx="3" fill="#3987e5"/>
<text class="tick" x="80" y="460">Composite</text>
<text class="val" x="260.0" y="460" text-anchor="middle">0.030</text>
<text class="tick" x="440.0" y="460" text-anchor="middle">0.032</text>
<text class="val" x="620.0" y="460" text-anchor="middle">0.024</text>
<text class="tick" x="800.0" y="460" text-anchor="middle">0.026</text>
<text class="tick" x="980.0" y="460" text-anchor="middle">0.056</text>
<rect x="60" y="473" width="12" height="12" rx="3" fill="#e0b32a"/>
<text class="tick" x="80" y="484">MinerU2.5-Pro</text>
<text class="tick" x="260.0" y="484" text-anchor="middle">0.037</text>
<text class="tick" x="440.0" y="484" text-anchor="middle">0.036</text>
<text class="val" x="620.0" y="484" text-anchor="middle">0.024</text>
<text class="tick" x="800.0" y="484" text-anchor="middle">0.029</text>
<text class="tick" x="980.0" y="484" text-anchor="middle">0.057</text>
<rect x="60" y="497" width="12" height="12" rx="3" fill="#e0609a"/>
<text class="tick" x="80" y="508">dots.mocr</text>
<text class="tick" x="260.0" y="508" text-anchor="middle">0.042</text>
<text class="tick" x="440.0" y="508" text-anchor="middle">0.047</text>
<text class="tick" x="620.0" y="508" text-anchor="middle">0.045</text>
<text class="tick" x="800.0" y="508" text-anchor="middle">0.047</text>
<text class="tick" x="980.0" y="508" text-anchor="middle">0.085</text>
<rect x="60" y="521" width="12" height="12" rx="3" fill="#8fa3b8"/>
<text class="tick" x="80" y="532">GLM-OCR</text>
<text class="tick" x="260.0" y="532" text-anchor="middle">0.088</text>
<text class="tick" x="440.0" y="532" text-anchor="middle">0.083</text>
<text class="tick" x="620.0" y="532" text-anchor="middle">0.100</text>
<text class="tick" x="800.0" y="532" text-anchor="middle">0.060</text>
<text class="tick" x="980.0" y="532" text-anchor="middle">0.100</text>
<rect x="60" y="545" width="12" height="12" rx="3" fill="#a06be0"/>
<text class="tick" x="80" y="556">Unlimited-OCR</text>
<text class="tick" x="260.0" y="556" text-anchor="middle">0.114</text>
<text class="tick" x="440.0" y="556" text-anchor="middle">0.245</text>
<text class="tick" x="620.0" y="556" text-anchor="middle">0.379</text>
<text class="tick" x="800.0" y="556" text-anchor="middle">0.216</text>
<text class="tick" x="980.0" y="556" text-anchor="middle">0.363</text>
<rect x="60" y="569" width="12" height="12" rx="3" fill="#d95926"/>
<text class="tick" x="80" y="580">Apple Vision</text>
<text class="tick" x="260.0" y="580" text-anchor="middle">0.122</text>
<text class="tick" x="440.0" y="580" text-anchor="middle">0.238</text>
<text class="tick" x="620.0" y="580" text-anchor="middle">0.369</text>
<text class="tick" x="800.0" y="580" text-anchor="middle">0.189</text>
<text class="tick" x="980.0" y="580" text-anchor="middle">0.277</text>
<rect x="60" y="593" width="12" height="12" rx="3" fill="#199e70"/>
<text class="tick" x="80" y="604">Qwen 3.6</text>
<text class="tick" x="260.0" y="604" text-anchor="middle">0.056</text>
<text class="tick" x="440.0" y="604" text-anchor="middle">0.036</text>
<text class="tick" x="620.0" y="604" text-anchor="middle">0.080</text>
<text class="tick" x="800.0" y="604" text-anchor="middle">0.057</text>
<text class="tick" x="980.0" y="604" text-anchor="middle">0.098</text>
<rect x="60" y="617" width="12" height="12" rx="3" fill="#c98a3a"/>
<text class="tick" x="80" y="628">Claude Fable 5.1</text>
<text class="tick" x="260.0" y="628" text-anchor="middle">0.042</text>
<text class="tick" x="440.0" y="628" text-anchor="middle">0.047</text>
<text class="val" x="620.0" y="628" text-anchor="middle">0.024</text>
<text class="tick" x="800.0" y="628" text-anchor="middle">0.042</text>
<text class="tick" x="980.0" y="628" text-anchor="middle">0.060</text>
<rect x="60" y="641" width="12" height="12" rx="3" fill="#33bfb8"/>
<text class="tick" x="80" y="652">GPT-6 Astra</text>
<text class="tick" x="260.0" y="652" text-anchor="middle">0.035</text>
<text class="val" x="440.0" y="652" text-anchor="middle">0.024</text>
<text class="tick" x="620.0" y="652" text-anchor="middle">0.040</text>
<text class="val" x="800.0" y="652" text-anchor="middle">0.018</text>
<text class="val" x="980.0" y="652" text-anchor="middle">0.039</text>
</svg>