<svg xmlns="http://www.w3.org/2000/svg" width="1100" height="680" viewBox="0 0 1100 680">
<rect width="100%" height="100%" fill="#1a1a2e"/>
<style>
text { font-family: -apple-system, BlinkMacSystemFont, "Segoe UI", sans-serif; fill: #ffffff; }
.title { font-size: 28px; font-weight: 700; }
.subtitle { font-size: 15px; fill: #cccccc; }
.axis { stroke: #444444; stroke-width: 1.2; }
.grid { stroke: #888888; stroke-opacity: 0.15; stroke-width: 1; }
.tick { font-size: 12px; fill: #cccccc; }
.legend { font-size: 14px; }
</style>
<text class="title" x="92" y="42">Autofill Production-Footprint Model</text>
<text class="subtitle" x="92" y="67">Log-log plot; linear-looking slopes mean linear footprint growth. 512 Temporal durable bytes/event</text>
<line class="grid" x1="92.0" y1="594.0" x2="1056.0" y2="594.0"/>
<text class="tick" x="80.0" y="598.0" text-anchor="end">10 MiB</text>
<line class="grid" x1="92.0" y1="468.5" x2="1056.0" y2="468.5"/>
<text class="tick" x="80.0" y="472.5" text-anchor="end">100 MiB</text>
<line class="grid" x1="92.0" y1="343.0" x2="1056.0" y2="343.0"/>
<text class="tick" x="80.0" y="347.0" text-anchor="end">1K MiB</text>
<line class="grid" x1="92.0" y1="217.5" x2="1056.0" y2="217.5"/>
<text class="tick" x="80.0" y="221.5" text-anchor="end">10K MiB</text>
<line class="grid" x1="92.0" y1="92.0" x2="1056.0" y2="92.0"/>
<text class="tick" x="80.0" y="96.0" text-anchor="end">100K MiB</text>
<line class="grid" x1="92.0" y1="92.0" x2="92.0" y2="594.0"/>
<text class="tick" x="92.0" y="622.0" text-anchor="middle">100K</text>
<line class="grid" x1="237.1" y1="92.0" x2="237.1" y2="594.0"/>
<text class="tick" x="237.1" y="622.0" text-anchor="middle">200K</text>
<line class="grid" x1="428.9" y1="92.0" x2="428.9" y2="594.0"/>
<text class="tick" x="428.9" y="622.0" text-anchor="middle">500K</text>
<line class="grid" x1="513.8" y1="92.0" x2="513.8" y2="594.0"/>
<text class="tick" x="513.8" y="622.0" text-anchor="middle">750K</text>
<line class="grid" x1="574.0" y1="92.0" x2="574.0" y2="594.0"/>
<text class="tick" x="574.0" y="622.0" text-anchor="middle">1M</text>
<line class="grid" x1="719.1" y1="92.0" x2="719.1" y2="594.0"/>
<text class="tick" x="719.1" y="622.0" text-anchor="middle">2M</text>
<line class="grid" x1="804.0" y1="92.0" x2="804.0" y2="594.0"/>
<text class="tick" x="804.0" y="622.0" text-anchor="middle">3M</text>
<line class="grid" x1="910.9" y1="92.0" x2="910.9" y2="594.0"/>
<text class="tick" x="910.9" y="622.0" text-anchor="middle">5M</text>
<line class="grid" x1="995.8" y1="92.0" x2="995.8" y2="594.0"/>
<text class="tick" x="995.8" y="622.0" text-anchor="middle">7.5M</text>
<line class="grid" x1="1056.0" y1="92.0" x2="1056.0" y2="594.0"/>
<text class="tick" x="1056.0" y="622.0" text-anchor="middle">10M</text>
<line class="axis" x1="92.0" y1="594.0" x2="1056.0" y2="594.0"/>
<line class="axis" x1="92.0" y1="92.0" x2="92.0" y2="594.0"/>
<text class="tick" x="574.0" y="658.0" text-anchor="middle">Cells</text>
<text class="tick" transform="translate(16 343.0) rotate(-90)" text-anchor="middle">Modeled Footprint (MiB, Log Scale)</text>
<polyline fill="none" stroke="#F5A623" stroke-width="3" points="92.0,461.9 237.1,424.1 428.9,374.2 513.8,352.1 574.0,336.4 719.1,298.6 804.0,276.5 910.9,248.7 995.8,226.6 1056.0,210.9"/>
<circle cx="92.0" cy="461.9" r="4.5" fill="#F5A623"/>
<circle cx="237.1" cy="424.1" r="4.5" fill="#F5A623"/>
<circle cx="428.9" cy="374.2" r="4.5" fill="#F5A623"/>
<circle cx="513.8" cy="352.1" r="4.5" fill="#F5A623"/>
<circle cx="574.0" cy="336.4" r="4.5" fill="#F5A623"/>
<circle cx="719.1" cy="298.6" r="4.5" fill="#F5A623"/>
<circle cx="804.0" cy="276.5" r="4.5" fill="#F5A623"/>
<circle cx="910.9" cy="248.7" r="4.5" fill="#F5A623"/>
<circle cx="995.8" cy="226.6" r="4.5" fill="#F5A623"/>
<circle cx="1056.0" cy="210.9" r="4.5" fill="#F5A623"/>
<polyline fill="none" stroke="#64C4CF" stroke-width="3" points="92.0,511.2 237.1,485.6 428.9,444.4 513.8,424.5 574.0,409.9 719.1,373.9 804.0,352.4 910.9,325.0 995.8,303.1 1056.0,287.6"/>
<circle cx="92.0" cy="511.2" r="4.5" fill="#64C4CF"/>
<circle cx="237.1" cy="485.6" r="4.5" fill="#64C4CF"/>
<circle cx="428.9" cy="444.4" r="4.5" fill="#64C4CF"/>
<circle cx="513.8" cy="424.5" r="4.5" fill="#64C4CF"/>
<circle cx="574.0" cy="409.9" r="4.5" fill="#64C4CF"/>
<circle cx="719.1" cy="373.9" r="4.5" fill="#64C4CF"/>
<circle cx="804.0" cy="352.4" r="4.5" fill="#64C4CF"/>
<circle cx="910.9" cy="325.0" r="4.5" fill="#64C4CF"/>
<circle cx="995.8" cy="303.1" r="4.5" fill="#64C4CF"/>
<circle cx="1056.0" cy="287.6" r="4.5" fill="#64C4CF"/>
<rect x="736.0" y="114.0" width="296" height="76" rx="6" fill="#1a1a2e" stroke="#444444"/>
<line x1="754.0" y1="138.0" x2="788.0" y2="138.0" stroke="#F5A623" stroke-width="3"/>
<text class="legend" x="800.0" y="143.0">Temporal selector simulation</text>
<line x1="754.0" y1="168.0" x2="788.0" y2="168.0" stroke="#64C4CF" stroke-width="3"/>
<text class="legend" x="800.0" y="173.0">Autofill pool simulation</text>
</svg>
