<svg width="48" height="48" viewBox="0 0 48 48" fill="none" xmlns="http://www.w3.org/2000/svg">
<path d="M22.404 7.702H25.68V43.444H22.404V7.702ZM5.184 22.822H42.984V25.552H5.184V22.822ZM5.898 11.902H42.228V14.632H5.898V11.902ZM21.102 29.248L23.664 30.424C19.842 35.254 12.954 39.412 6.78 41.428C6.276 40.672 5.352 39.496 4.68 38.824C10.812 37.144 17.616 33.406 21.102 29.248ZM27.066 29.416C30.468 33.574 37.23 37.228 43.446 38.824C42.774 39.454 41.892 40.63 41.43 41.428C35.13 39.496 28.326 35.296 24.504 30.508L27.066 29.416ZM37.23 4.678L39.204 7.156C31.35 8.71 18.834 9.382 8.628 9.466C8.586 8.71 8.25 7.534 7.956 6.904C18.078 6.694 30.468 5.98 37.23 4.678ZM9.3 17.446H38.658V30.844H8.964V28.534H35.508V19.798H9.3V17.446Z" fill="#F0F0F0"/>
</svg>
