<svg xmlns="http://www.w3.org/2000/svg" width="1100" height="540" viewBox="0 0 1100 540">
<rect width="100%" height="100%" fill="#1a1a2e" rx="8"/>
<style>
text { font-family: -apple-system, BlinkMacSystemFont, "Segoe UI", sans-serif; fill: #c9c9d4; font-size: 16px; }
.title { font-size: 30px; font-weight: 700; fill: #ffffff; }
.subtitle { font-size: 17px; fill: #c9c9d4; }
.lab { fill: #ffffff; font-weight: 600; }
.tick { font-size: 14.5px; fill: #8f8f9c; }
.onmark { font-weight: 600; font-size: 15px; }
.axis { stroke: #55556a; stroke-width: 1.2; }
.grid { stroke: #3a3a4e; stroke-width: 1; }
.leader { stroke: #8f8f9c; stroke-width: 1; }
</style>

<text class="title" x="74" y="42">What your chat experiences</text>
<text class="subtitle" x="74" y="68">Decode rate of one warm chat stream while a 60k-token benchmark prefill arrives and completes.</text>
<line class="axis" x1="74" y1="480.0" x2="1056" y2="480.0"/>
<text class="tick" x="64" y="484.0" text-anchor="end">0</text>
<line class="grid" x1="74" y1="387.5" x2="1056" y2="387.5"/>
<text class="tick" x="64" y="391.5" text-anchor="end">20</text>
<line class="grid" x1="74" y1="295.0" x2="1056" y2="295.0"/>
<text class="tick" x="64" y="299.0" text-anchor="end">40</text>
<line class="grid" x1="74" y1="202.5" x2="1056" y2="202.5"/>
<text class="tick" x="64" y="206.5" text-anchor="end">60</text>
<line class="grid" x1="74" y1="110.0" x2="1056" y2="110.0"/>
<text class="tick" x="64" y="114.0" text-anchor="end">80</text>
<text class="tick" x="82" y="126">tok/s</text>
<rect x="319.5" y="110" width="409.2" height="370" fill="rgba(217,89,38,0.16)"/>
<text class="lab" x="524" y="130" text-anchor="middle" style="fill:#d95926">benchmark prefill in flight (60k-token document)</text>
<line x1="74" y1="202.5" x2="1056" y2="202.5" stroke="#8f8f9c" stroke-width="1" stroke-dasharray="5 4"/>
<text class="tick" x="1056" y="218.5" text-anchor="end">60 tok/s target</text>
<path d="M74.0 179.4 L82.2 173.8 L90.4 171.3 L98.5 173.1 L106.7 177.5 L114.9 181.1 L123.1 181.3 L131.3 178.1 L139.5 173.9 L147.6 171.9 L155.8 174.1 L164.0 179.5 L172.2 185.2 L180.4 187.9 L188.6 186.3 L196.8 181.9 L204.9 177.9 L213.1 177.1 L221.3 179.8 L229.5 184.0 L237.7 186.2 L245.8 184.4 L254.0 179.1 L262.2 173.4 L270.4 170.4 L278.6 171.8 L286.8 176.3 L295.0 180.7 L303.1 182.1 L311.3 179.7 L319.3 175.8 L319.5 476.9 L327.7 476.9 L335.9 476.9 L344.1 476.9 L352.2 476.9 L360.4 476.9 L368.6 476.9 L376.8 476.9 L385.0 476.9 L393.2 476.9 L401.3 476.9 L409.5 476.9 L417.7 476.9 L425.9 476.9 L434.1 476.9 L442.2 476.9 L450.4 476.9 L458.6 476.9 L466.8 476.9 L475.0 476.9 L483.2 476.9 L491.3 476.9 L499.5 476.9 L507.7 476.9 L515.9 476.9 L524.1 476.9 L532.3 476.9 L540.5 476.9 L548.6 476.9 L556.8 476.9 L565.0 476.9 L573.2 476.9 L581.4 476.9 L589.6 476.9 L597.7 476.9 L605.9 476.9 L614.1 476.9 L622.3 476.9 L630.5 476.9 L638.6 476.9 L646.8 476.9 L655.0 476.9 L663.2 476.9 L671.4 476.9 L679.6 476.9 L687.8 476.9 L695.9 476.9 L704.1 476.9 L712.3 476.9 L720.5 476.9 L728.5 476.9 L728.7 188.1 L736.9 183.7 L745.0 177.9 L753.2 174.3 L761.4 174.6 L769.6 178.0 L777.8 181.6 L785.9 182.3 L794.1 179.2 L802.3 174.2 L810.5 170.5 L818.7 170.7 L826.9 175.1 L835.1 181.0 L843.2 185.0 L851.4 185.0 L859.6 181.7 L867.8 177.9 L876.0 176.7 L884.1 179.3 L892.3 184.1 L900.5 187.8 L908.7 187.8 L916.9 183.6 L925.1 177.6 L933.2 173.3 L941.4 172.9 L949.6 176.1 L957.8 180.1 L966.0 181.8 L974.2 179.8 L982.4 175.2 L990.5 171.5 L998.7 171.3 L1006.9 175.3 L1015.1 181.3 L1023.3 185.9 L1031.4 186.6 L1039.6 183.5 L1047.8 179.3 L1056.0 177.1" fill="none" stroke="#3987e5" stroke-width="2.5" stroke-linejoin="round"/>
<circle cx="524" cy="476.9" r="5" fill="#3987e5" stroke="#1a1a2e" stroke-width="2"/>
<text class="lab" x="524" y="463" text-anchor="middle">0.67 tok/s measured</text>
<line class="axis" x1="74" y1="480" x2="74" y2="485"/>
<text class="tick" x="74" y="502" text-anchor="middle">0 s</text>
<line class="axis" x1="238" y1="480" x2="238" y2="485"/>
<text class="tick" x="238" y="502" text-anchor="middle">10 s</text>
<line class="axis" x1="401" y1="480" x2="401" y2="485"/>
<text class="tick" x="401" y="502" text-anchor="middle">20 s</text>
<line class="axis" x1="565" y1="480" x2="565" y2="485"/>
<text class="tick" x="565" y="502" text-anchor="middle">30 s</text>
<line class="axis" x1="729" y1="480" x2="729" y2="485"/>
<text class="tick" x="729" y="502" text-anchor="middle">40 s</text>
<line class="axis" x1="892" y1="480" x2="892" y2="485"/>
<text class="tick" x="892" y="502" text-anchor="middle">50 s</text>
<line class="axis" x1="1056" y1="480" x2="1056" y2="485"/>
<text class="tick" x="1056" y="502" text-anchor="middle">60 s</text>
</svg>
