<svg xmlns="http://www.w3.org/2000/svg" width="1100" height="400" viewBox="0 0 1100 400">
<rect width="100%" height="100%" fill="#fcfcfb" rx="8"/>
<style>
text { font-family: -apple-system, BlinkMacSystemFont, "Segoe UI", sans-serif; fill: #52514e; font-size: 16px; }
.title { font-size: 30px; font-weight: 700; fill: #0b0b0b; }
.subtitle { font-size: 17px; fill: #52514e; }
.lab { fill: #0b0b0b; font-weight: 600; }
.tick { font-size: 14.5px; fill: #898781; }
.onmark { font-weight: 600; font-size: 15px; }
.axis { stroke: #c3c2b7; stroke-width: 1.2; }
.grid { stroke: #e1e0d9; stroke-width: 1; }
.leader { stroke: #898781; stroke-width: 1; }
</style>

<text class="title" x="60" y="42">The second-order tax: resident context fattens every step</text>
<text class="subtitle" x="60" y="68">Bytes read per decode step. A step re-reads every in-flight sequence's KV cache (~20 KB/token) on top of the weights.</text>
<rect x="60" y="89" width="13" height="13" rx="3" fill="#2a78d6"/>
<text x="80" y="100">active weights re-read</text>
<rect x="326.4" y="89" width="13" height="13" rx="3" fill="#eb6834"/>
<text x="346.4" y="100">resident KV re-read</text>
<line class="grid" x1="390" y1="130" x2="390" y2="320"/>
<line class="grid" x1="512" y1="130" x2="512" y2="320"/>
<line class="grid" x1="634" y1="130" x2="634" y2="320"/>
<line class="grid" x1="756" y1="130" x2="756" y2="320"/>
<line class="grid" x1="878" y1="130" x2="878" y2="320"/>
<line class="grid" x1="1000" y1="130" x2="1000" y2="320"/>
<text class="lab" x="60" y="174" font-size="15">Chats alone, short contexts</text>
<rect x="390.0" y="150" width="244.0" height="38" rx="4" fill="#2a78d6"/>
<text class="onmark" x="512" y="174" text-anchor="middle" style="fill:#ffffff">weights ~2.0 GB</text>
<text class="lab" x="646" y="174" style="fill:#2a78d6">≈ 65 tok/s</text>
<text class="lab" x="60" y="264" font-size="15">+ one 130k-token benchmark sequence</text>
<rect x="390.0" y="240" width="244.0" height="38" rx="4" fill="#2a78d6"/>
<text class="onmark" x="512" y="264" text-anchor="middle" style="fill:#ffffff">weights ~2.0 GB</text>
<rect x="636.0" y="240" width="315.2" height="38" rx="4" fill="#eb6834"/>
<text class="onmark" x="794" y="264" text-anchor="middle" style="fill:#0b0b0b">KV ~2.6 GB</text>
<text class="lab" x="963" y="264" style="fill:#eb6834">≈ ½ the rate</text>
<line class="axis" x1="390" y1="320" x2="1000" y2="320"/>
<line class="axis" x1="390" y1="320" x2="390" y2="325"/>
<text class="tick" x="390" y="342" text-anchor="middle">0</text>
<line class="axis" x1="512" y1="320" x2="512" y2="325"/>
<text class="tick" x="512" y="342" text-anchor="middle">1</text>
<line class="axis" x1="634" y1="320" x2="634" y2="325"/>
<text class="tick" x="634" y="342" text-anchor="middle">2</text>
<line class="axis" x1="756" y1="320" x2="756" y2="325"/>
<text class="tick" x="756" y="342" text-anchor="middle">3</text>
<line class="axis" x1="878" y1="320" x2="878" y2="325"/>
<text class="tick" x="878" y="342" text-anchor="middle">4</text>
<line class="axis" x1="1000" y1="320" x2="1000" y2="325"/>
<text class="tick" x="1000" y="342" text-anchor="end">5 GB</text>
</svg>
