<svg xmlns="http://www.w3.org/2000/svg" width="1100" height="400" viewBox="0 0 1100 400">
<rect width="100%" height="100%" fill="#1a1a2e" rx="8"/>
<style>
text { font-family: -apple-system, BlinkMacSystemFont, "Segoe UI", sans-serif; fill: #c9c9d4; font-size: 16px; }
.title { font-size: 30px; font-weight: 700; fill: #ffffff; }
.subtitle { font-size: 17px; fill: #c9c9d4; }
.lab { fill: #ffffff; font-weight: 600; }
.tick { font-size: 14.5px; fill: #8f8f9c; }
.onmark { font-weight: 600; font-size: 15px; }
.axis { stroke: #55556a; stroke-width: 1.2; }
.grid { stroke: #3a3a4e; stroke-width: 1; }
.leader { stroke: #8f8f9c; stroke-width: 1; }
</style>

<text class="title" x="60" y="42">The second-order tax: resident context fattens every step</text>
<text class="subtitle" x="60" y="68">Bytes read per decode step. A step re-reads every in-flight sequence's KV cache (~20 KB/token) on top of the weights.</text>
<rect x="60" y="89" width="13" height="13" rx="3" fill="#3987e5"/>
<text x="80" y="100">active weights re-read</text>
<rect x="326.4" y="89" width="13" height="13" rx="3" fill="#d95926"/>
<text x="346.4" y="100">resident KV re-read</text>
<line class="grid" x1="390" y1="130" x2="390" y2="320"/>
<line class="grid" x1="492" y1="130" x2="492" y2="320"/>
<line class="grid" x1="593" y1="130" x2="593" y2="320"/>
<line class="grid" x1="695" y1="130" x2="695" y2="320"/>
<line class="grid" x1="797" y1="130" x2="797" y2="320"/>
<line class="grid" x1="898" y1="130" x2="898" y2="320"/>
<line class="grid" x1="1000" y1="130" x2="1000" y2="320"/>
<text class="lab" x="60" y="174" font-size="15">Chats alone, short contexts</text>
<rect x="390.0" y="150" width="305.0" height="38" rx="4" fill="#3987e5"/>
<text class="onmark" x="542" y="174" text-anchor="middle" style="fill:#ffffff">weights ~3.0 GB</text>
<text class="lab" x="707" y="174" style="fill:#3987e5">≈ 65 tok/s</text>
<text class="lab" x="60" y="264" font-size="15">+ one 130k-token benchmark sequence</text>
<rect x="390.0" y="240" width="305.0" height="38" rx="4" fill="#3987e5"/>
<text class="onmark" x="542" y="264" text-anchor="middle" style="fill:#ffffff">weights ~3.0 GB</text>
<rect x="697.0" y="240" width="262.3" height="38" rx="4" fill="#d95926"/>
<text class="onmark" x="828" y="264" text-anchor="middle" style="fill:#0b0b0b">KV ~2.6 GB</text>
<text class="lab" x="971" y="264" style="fill:#d95926">≈ ½ the rate</text>
<line class="axis" x1="390" y1="320" x2="1000" y2="320"/>
<line class="axis" x1="390" y1="320" x2="390" y2="325"/>
<text class="tick" x="390" y="342" text-anchor="middle">0</text>
<line class="axis" x1="492" y1="320" x2="492" y2="325"/>
<text class="tick" x="492" y="342" text-anchor="middle">1</text>
<line class="axis" x1="593" y1="320" x2="593" y2="325"/>
<text class="tick" x="593" y="342" text-anchor="middle">2</text>
<line class="axis" x1="695" y1="320" x2="695" y2="325"/>
<text class="tick" x="695" y="342" text-anchor="middle">3</text>
<line class="axis" x1="797" y1="320" x2="797" y2="325"/>
<text class="tick" x="797" y="342" text-anchor="middle">4</text>
<line class="axis" x1="898" y1="320" x2="898" y2="325"/>
<text class="tick" x="898" y="342" text-anchor="middle">5</text>
<line class="axis" x1="1000" y1="320" x2="1000" y2="325"/>
<text class="tick" x="1000" y="342" text-anchor="end">6 GB</text>
</svg>
