<svg xmlns="http://www.w3.org/2000/svg" width="1200" height="630" viewBox="0 0 1200 630"><rect width="100%" height="100%" fill="#1a1a2e"/><style>text{font-family: -apple-system, BlinkMacSystemFont, "Segoe UI", sans-serif;}</style><text x="64" y="106" style="font-size:44px;font-weight:700;fill:#ffffff">The shapes of agent memory</text><text x="66" y="148" style="font-size:20px;fill:#c9c9d4">Files, structured stores, and experience</text><rect x="64" y="200" width="330" height="360" rx="14" fill="#24243a" stroke="#eb6834" stroke-width="2.5"/><rect x="435" y="200" width="330" height="360" rx="14" fill="#24243a" stroke="#2a78d6" stroke-width="2.5"/><rect x="806" y="200" width="330" height="360" rx="14" fill="#24243a" stroke="#1baf7a" stroke-width="2.5"/><rect x="104" y="234" width="176" height="13" rx="6" fill="#eb6834" opacity="0.42"/><rect x="104" y="261" width="196" height="13" rx="6" fill="#eb6834" opacity="0.42"/><rect x="104" y="288" width="158" height="13" rx="6" fill="#eb6834" opacity="0.42"/><rect x="104" y="315" width="188" height="13" rx="6" fill="#eb6834" opacity="0.42"/><rect x="104" y="342" width="214" height="13" rx="6" fill="#eb6834" opacity="0.95"/><rect x="104" y="369" width="200" height="13" rx="6" fill="#eb6834" opacity="0.42"/><rect x="104" y="396" width="164" height="13" rx="6" fill="#eb6834" opacity="0.42"/><rect x="104" y="423" width="182" height="13" rx="6" fill="#eb6834" opacity="0.42"/><rect x="104" y="450" width="192" height="13" rx="6" fill="#eb6834" opacity="0.42"/><rect x="104" y="477" width="170" height="13" rx="6" fill="#eb6834" opacity="0.42"/><text x="229.0" y="534" text-anchor="middle" style="font-size:22px;font-weight:600;fill:#eb6834">Files</text><line x1="600" y1="238" x2="480" y2="286" stroke="#1baf7a" stroke-width="1.6" opacity="0.55"/><line x1="480" y1="286" x2="720" y2="286" stroke="#1baf7a" stroke-width="1.6" opacity="0.55"/><line x1="720" y1="286" x2="600" y2="334" stroke="#1baf7a" stroke-width="1.6" opacity="0.55"/><line x1="600" y1="334" x2="540" y2="382" stroke="#1baf7a" stroke-width="1.6" opacity="0.55"/><line x1="540" y1="382" x2="720" y2="382" stroke="#1baf7a" stroke-width="1.6" opacity="0.55"/><line x1="720" y1="382" x2="660" y2="430" stroke="#1baf7a" stroke-width="1.6" opacity="0.55"/><line x1="660" y1="430" x2="540" y2="478" stroke="#1baf7a" stroke-width="1.6" opacity="0.55"/><circle cx="480" cy="238" r="10" fill="#2a78d6" opacity="0.8"/><circle cx="540" cy="238" r="10" fill="#2a78d6" opacity="0.8"/><circle cx="600" cy="238" r="10" fill="#1baf7a" opacity="0.8"/><circle cx="660" cy="238" r="10" fill="#2a78d6" opacity="0.8"/><circle cx="720" cy="238" r="10" fill="#2a78d6" opacity="0.8"/><circle cx="480" cy="286" r="10" fill="#1baf7a" opacity="0.8"/><circle cx="540" cy="286" r="10" fill="#2a78d6" opacity="0.8"/><circle cx="600" cy="286" r="10" fill="#2a78d6" opacity="0.8"/><circle cx="660" cy="286" r="10" fill="#2a78d6" opacity="0.8"/><circle cx="720" cy="286" r="10" fill="#1baf7a" opacity="0.8"/><circle cx="480" cy="334" r="10" fill="#2a78d6" opacity="0.8"/><circle cx="540" cy="334" r="10" fill="#2a78d6" opacity="0.8"/><circle cx="600" cy="334" r="10" fill="#1baf7a" opacity="0.8"/><circle cx="660" cy="334" r="10" fill="#2a78d6" opacity="0.8"/><circle cx="720" cy="334" r="10" fill="#2a78d6" opacity="0.8"/><circle cx="480" cy="382" r="10" fill="#2a78d6" opacity="0.8"/><circle cx="540" cy="382" r="10" fill="#1baf7a" opacity="0.8"/><circle cx="600" cy="382" r="10" fill="#2a78d6" opacity="0.8"/><circle cx="660" cy="382" r="10" fill="#2a78d6" opacity="0.8"/><circle cx="720" cy="382" r="10" fill="#1baf7a" opacity="0.8"/><circle cx="480" cy="430" r="10" fill="#2a78d6" opacity="0.8"/><circle cx="540" cy="430" r="10" fill="#2a78d6" opacity="0.8"/><circle cx="600" cy="430" r="10" fill="#2a78d6" opacity="0.8"/><circle cx="660" cy="430" r="10" fill="#1baf7a" opacity="0.8"/><circle cx="720" cy="430" r="10" fill="#2a78d6" opacity="0.8"/><circle cx="480" cy="478" r="10" fill="#2a78d6" opacity="0.8"/><circle cx="540" cy="478" r="10" fill="#1baf7a" opacity="0.8"/><circle cx="600" cy="478" r="10" fill="#2a78d6" opacity="0.8"/><circle cx="660" cy="478" r="10" fill="#2a78d6" opacity="0.8"/><circle cx="720" cy="478" r="10" fill="#2a78d6" opacity="0.8"/><text x="600.0" y="534" text-anchor="middle" style="font-size:22px;font-weight:600;fill:#2a78d6">Vectors + Graph</text><polyline points="846,295 908,275 971,300 1033,280 1096,296" fill="none" stroke="#1baf7a" stroke-width="2.4" opacity="0.35"/><circle cx="846" cy="295" r="5.5" fill="#1baf7a" opacity="0.35"/><circle cx="908" cy="275" r="5.5" fill="#1baf7a" opacity="0.35"/><circle cx="971" cy="300" r="5.5" fill="#1baf7a" opacity="0.35"/><circle cx="1033" cy="280" r="5.5" fill="#1baf7a" opacity="0.35"/><circle cx="1096" cy="296" r="5.5" fill="#1baf7a" opacity="0.35"/><polyline points="846,360 908,338 971,365 1033,340 1096,358" fill="none" stroke="#1baf7a" stroke-width="3" opacity="0.95"/><circle cx="846" cy="360" r="6.5" fill="#1baf7a" opacity="0.95"/><circle cx="908" cy="338" r="6.5" fill="#1baf7a" opacity="0.95"/><circle cx="971" cy="365" r="6.5" fill="#1baf7a" opacity="0.95"/><circle cx="1033" cy="340" r="6.5" fill="#1baf7a" opacity="0.95"/><circle cx="1096" cy="358" r="6.5" fill="#1baf7a" opacity="0.95"/><circle cx="1096" cy="358" r="9" fill="#1baf7a"/><circle cx="1096" cy="358" r="16" fill="none" stroke="#1baf7a" stroke-width="2.5" opacity="0.9"/><polyline points="846,425 908,405 971,430 1033,408 1096,424" fill="none" stroke="#1baf7a" stroke-width="2.4" opacity="0.35"/><circle cx="846" cy="425" r="5.5" fill="#1baf7a" opacity="0.35"/><circle cx="908" cy="405" r="5.5" fill="#1baf7a" opacity="0.35"/><circle cx="971" cy="430" r="5.5" fill="#1baf7a" opacity="0.35"/><circle cx="1033" cy="408" r="5.5" fill="#1baf7a" opacity="0.35"/><circle cx="1096" cy="424" r="5.5" fill="#1baf7a" opacity="0.35"/><polyline points="846,490 908,470 971,495 1033,472 1096,488" fill="none" stroke="#1baf7a" stroke-width="2.4" opacity="0.35"/><circle cx="846" cy="490" r="5.5" fill="#1baf7a" opacity="0.35"/><circle cx="908" cy="470" r="5.5" fill="#1baf7a" opacity="0.35"/><circle cx="971" cy="495" r="5.5" fill="#1baf7a" opacity="0.35"/><circle cx="1033" cy="472" r="5.5" fill="#1baf7a" opacity="0.35"/><circle cx="1096" cy="488" r="5.5" fill="#1baf7a" opacity="0.35"/><text x="971.0" y="534" text-anchor="middle" style="font-size:22px;font-weight:600;fill:#1baf7a">Experience</text></svg>