<svg xmlns="http://www.w3.org/2000/svg" width="1100" height="580" viewBox="0 0 1100 580"><rect width="100%" height="100%" fill="#1a1a2e" rx="8"/><style>text { font-family: -apple-system, BlinkMacSystemFont, "Segoe UI", sans-serif; fill: #c9c9d4; font-size: 18px; }.title { font-size: 31px; font-weight: 700; fill: #ffffff; }.subtitle { font-size: 19px; fill: #c9c9d4; }.tick { font-size: 16px; fill: #8f8f9c; }.small { font-size: 16.5px; fill: #c9c9d4; }.axis { stroke: #55556a; stroke-width: 1.2; }.grid { stroke: #3a3a4e; stroke-width: 1; }</style><text class="title" x="70" y="46">Accuracy by question type, LoCoMo</text><text class="subtitle" x="70" y="74">Same arms, same judge, n=300 stratified. Structured wins every memory category; file-based wins two.</text><line class="grid" x1="100" y1="450.0" x2="1030" y2="450.0"/><text class="tick" x="88" y="455.0" text-anchor="end">0%</text><line class="grid" x1="100" y1="386.0" x2="1030" y2="386.0"/><text class="tick" x="88" y="391.0" text-anchor="end">20%</text><line class="grid" x1="100" y1="322.0" x2="1030" y2="322.0"/><text class="tick" x="88" y="327.0" text-anchor="end">40%</text><line class="grid" x1="100" y1="258.0" x2="1030" y2="258.0"/><text class="tick" x="88" y="263.0" text-anchor="end">60%</text><line class="grid" x1="100" y1="194.0" x2="1030" y2="194.0"/><text class="tick" x="88" y="199.0" text-anchor="end">80%</text><line class="grid" x1="100" y1="130.0" x2="1030" y2="130.0"/><text class="tick" x="88" y="135.0" text-anchor="end">100%</text><rect x="144.0" y="229.2" width="46" height="220.8" rx="3" fill="#2a78d6"/><text class="small" x="167.0" y="221.2" text-anchor="middle" style="fill:#2a78d6;font-weight:600">69</text><rect x="196.0" y="350.8" width="46" height="99.2" rx="3" fill="#eb6834"/><text class="small" x="219.0" y="342.8" text-anchor="middle" style="fill:#eb6834;font-weight:600">31</text><text class="tick" x="193.0" y="474" text-anchor="middle">Temporal</text><rect x="330.0" y="283.6" width="46" height="166.4" rx="3" fill="#2a78d6"/><text class="small" x="353.0" y="275.6" text-anchor="middle" style="fill:#2a78d6;font-weight:600">52</text><rect x="382.0" y="366.8" width="46" height="83.2" rx="3" fill="#eb6834"/><text class="small" x="405.0" y="358.8" text-anchor="middle" style="fill:#eb6834;font-weight:600">26</text><text class="tick" x="379.0" y="474" text-anchor="middle">Temporal-inf.</text><rect x="516.0" y="238.8" width="46" height="211.2" rx="3" fill="#2a78d6"/><text class="small" x="539.0" y="230.8" text-anchor="middle" style="fill:#2a78d6;font-weight:600">66</text><rect x="568.0" y="318.8" width="46" height="131.2" rx="3" fill="#eb6834"/><text class="small" x="591.0" y="310.8" text-anchor="middle" style="fill:#eb6834;font-weight:600">41</text><text class="tick" x="565.0" y="474" text-anchor="middle">Open-domain</text><rect x="702.0" y="331.6" width="46" height="118.4" rx="3" fill="#2a78d6"/><text class="small" x="725.0" y="323.6" text-anchor="middle" style="fill:#2a78d6;font-weight:600">37</text><rect x="754.0" y="309.2" width="46" height="140.8" rx="3" fill="#eb6834"/><text class="small" x="777.0" y="301.2" text-anchor="middle" style="fill:#eb6834;font-weight:600">44</text><text class="tick" x="751.0" y="474" text-anchor="middle">Single-hop</text><text class="small" x="751.0" y="275.2" text-anchor="middle" style="fill:#eb6834;font-weight:600">File-based wins</text><rect x="888.0" y="370.0" width="46" height="80.0" rx="3" fill="#2a78d6"/><text class="small" x="911.0" y="362.0" text-anchor="middle" style="fill:#2a78d6;font-weight:600">25</text><rect x="940.0" y="286.8" width="46" height="163.2" rx="3" fill="#eb6834"/><text class="small" x="963.0" y="278.8" text-anchor="middle" style="fill:#eb6834;font-weight:600">51</text><text class="tick" x="937.0" y="474" text-anchor="middle">Adversarial</text><text class="small" x="937.0" y="252.8" text-anchor="middle" style="fill:#eb6834;font-weight:600">File-based wins</text><line class="axis" x1="100" y1="450" x2="1030" y2="450"/><rect x="100" y="506" width="17" height="17" rx="3" fill="#2a78d6"/><text class="small" x="126" y="520">Structured (0.497 all / 0.561 excl-adversarial)</text><rect x="530" y="506" width="17" height="17" rx="3" fill="#eb6834"/><text class="small" x="556" y="520">File-based (0.387 / 0.356)</text><text class="small" x="100" y="548" style="fill:#8f8f9c">No-memory floor: 0.217. Nearly all its wins are adversarial refusals</text></svg>